<svg id="SvgjsSvg1000" xmlns="http://www.w3.org/2000/svg" version="1.1" xmlns:xlink="http://www.w3.org/1999/xlink" xmlns:svgjs="http://svgjs.com/svgjs" width="16" height="17" viewBox="0 0 16 17"><title>Page 1</title><desc>Created with Avocode.</desc><defs id="SvgjsDefs1001"></defs><path id="SvgjsPath1007" d="M629.97 339.19C628.48 337.83 626.5 337 624.33 337C619.74 337 616 340.72 616 345.3C616 349.87 619.74 353.59000000000003 624.33 353.59000000000003C626.63 353.59000000000003 628.71 352.67 630.22 351.17L628.57 349.53000000000003C627.48 350.6 625.98 351.27000000000004 624.33 351.27000000000004C621.0200000000001 351.27000000000004 618.33 348.59000000000003 618.33 345.3C618.33 342 621.0200000000001 339.32 624.33 339.32C625.86 339.32 627.26 339.89 628.32 340.83L626.33 342.81H629.7900000000001H632.0000000000001V342.05V337.17Z " fill="#d9d9d9" fill-opacity="1" transform="matrix(1,0,0,1,-616,-337)"></path></svg>